<svg xmlns="http://www.w3.org/2000/svg" xmlns:xlink="http://www.w3.org/1999/xlink" width="46" zoomAndPan="magnify" viewBox="0 0 34.5 34.5" height="46" preserveAspectRatio="xMidYMid meet" version="1.0"><defs><clipPath id="0a208691b1"><path d="M 5 3.402344 L 29 3.402344 L 29 30.015625 L 5 30.015625 Z M 5 3.402344 " clip-rule="nonzero"/></clipPath></defs><path fill="#000000" d="M 21.457031 16.949219 C 21.617188 17.113281 21.699219 17.308594 21.699219 17.539062 C 21.699219 17.769531 21.617188 17.964844 21.457031 18.128906 L 16.464844 23.117188 C 16.300781 23.28125 16.105469 23.363281 15.875 23.363281 C 15.644531 23.363281 15.449219 23.28125 15.289062 23.117188 L 12.792969 20.625 C 12.628906 20.460938 12.546875 20.265625 12.546875 20.035156 C 12.550781 19.804688 12.628906 19.609375 12.792969 19.445312 C 12.957031 19.285156 13.152344 19.203125 13.382812 19.203125 C 13.609375 19.203125 13.808594 19.285156 13.96875 19.445312 L 15.875 21.355469 L 20.277344 16.949219 C 20.441406 16.789062 20.636719 16.707031 20.867188 16.707031 C 21.097656 16.707031 21.292969 16.789062 21.457031 16.949219 " fill-opacity="1" fill-rule="evenodd"/><g clip-path="url(#0a208691b1)"><path fill="#000000" d="M 16.707031 5.0625 C 16.980469 5.0625 17.25 5.089844 17.519531 5.144531 C 17.785156 5.199219 18.046875 5.277344 18.300781 5.378906 C 18.550781 5.484375 18.792969 5.613281 19.019531 5.765625 C 19.246094 5.917969 19.457031 6.089844 19.648438 6.28125 C 19.839844 6.476562 20.015625 6.683594 20.164062 6.914062 C 20.316406 7.140625 20.445312 7.378906 20.550781 7.632812 C 20.652344 7.882812 20.734375 8.144531 20.785156 8.410156 C 20.839844 8.679688 20.867188 8.949219 20.867188 9.222656 L 20.867188 10.054688 L 12.550781 10.054688 L 12.550781 9.222656 C 12.550781 8.949219 12.574219 8.679688 12.628906 8.410156 C 12.683594 8.144531 12.761719 7.882812 12.867188 7.632812 C 12.96875 7.378906 13.097656 7.140625 13.25 6.914062 C 13.402344 6.683594 13.574219 6.476562 13.765625 6.28125 C 13.960938 6.089844 14.171875 5.917969 14.398438 5.765625 C 14.625 5.613281 14.863281 5.484375 15.117188 5.378906 C 15.367188 5.277344 15.628906 5.199219 15.898438 5.144531 C 16.164062 5.089844 16.433594 5.0625 16.707031 5.0625 M 22.53125 10.054688 L 22.53125 9.222656 C 22.53125 8.839844 22.492188 8.460938 22.417969 8.085938 C 22.34375 7.710938 22.234375 7.347656 22.085938 6.996094 C 21.941406 6.640625 21.761719 6.304688 21.546875 5.988281 C 21.335938 5.671875 21.09375 5.375 20.824219 5.105469 C 20.554688 4.835938 20.261719 4.59375 19.941406 4.382812 C 19.625 4.167969 19.289062 3.988281 18.9375 3.84375 C 18.582031 3.699219 18.21875 3.585938 17.84375 3.511719 C 17.46875 3.4375 17.089844 3.402344 16.707031 3.402344 C 16.324219 3.402344 15.945312 3.4375 15.570312 3.511719 C 15.195312 3.585938 14.832031 3.699219 14.480469 3.84375 C 14.125 3.988281 13.792969 4.167969 13.472656 4.382812 C 13.15625 4.59375 12.863281 4.835938 12.589844 5.105469 C 12.320312 5.375 12.078125 5.671875 11.867188 5.988281 C 11.65625 6.304688 11.476562 6.640625 11.328125 6.996094 C 11.183594 7.347656 11.074219 7.710938 10.996094 8.085938 C 10.921875 8.460938 10.886719 8.839844 10.886719 9.222656 L 10.886719 10.054688 L 5.0625 10.054688 L 5.0625 26.6875 C 5.0625 27.128906 5.148438 27.554688 5.316406 27.960938 C 5.484375 28.367188 5.726562 28.730469 6.039062 29.039062 C 6.351562 29.351562 6.710938 29.59375 7.117188 29.761719 C 7.523438 29.929688 7.949219 30.015625 8.390625 30.015625 L 25.023438 30.015625 C 25.464844 30.015625 25.890625 29.929688 26.296875 29.761719 C 26.707031 29.59375 27.066406 29.351562 27.378906 29.039062 C 27.6875 28.730469 27.929688 28.367188 28.097656 27.960938 C 28.265625 27.554688 28.351562 27.128906 28.351562 26.6875 L 28.351562 10.054688 Z M 6.726562 11.71875 L 26.6875 11.71875 L 26.6875 26.6875 C 26.6875 26.910156 26.644531 27.121094 26.5625 27.324219 C 26.476562 27.527344 26.355469 27.707031 26.199219 27.863281 C 26.046875 28.019531 25.863281 28.140625 25.660156 28.226562 C 25.457031 28.308594 25.246094 28.351562 25.023438 28.351562 L 8.390625 28.351562 C 8.171875 28.351562 7.957031 28.308594 7.753906 28.226562 C 7.550781 28.140625 7.371094 28.019531 7.214844 27.863281 C 7.058594 27.707031 6.9375 27.527344 6.855469 27.324219 C 6.769531 27.121094 6.726562 26.910156 6.726562 26.6875 Z M 6.726562 11.71875 " fill-opacity="1" fill-rule="nonzero"/></g></svg>