<svg xmlns="http://www.w3.org/2000/svg" xmlns:xlink="http://www.w3.org/1999/xlink" width="46" zoomAndPan="magnify" viewBox="0 0 34.5 34.5" height="46" preserveAspectRatio="xMidYMid meet" version="1.0"><path fill="#000000" d="M 25.140625 7.539062 C 25.234375 7.632812 25.308594 7.742188 25.359375 7.867188 C 25.410156 7.988281 25.433594 8.117188 25.433594 8.253906 C 25.433594 8.386719 25.410156 8.515625 25.359375 8.640625 C 25.308594 8.761719 25.234375 8.871094 25.140625 8.96875 L 8.96875 25.140625 C 8.871094 25.234375 8.761719 25.308594 8.640625 25.359375 C 8.515625 25.410156 8.386719 25.433594 8.253906 25.433594 C 8.117188 25.433594 7.988281 25.410156 7.867188 25.359375 C 7.742188 25.308594 7.632812 25.234375 7.539062 25.140625 C 7.441406 25.042969 7.371094 24.933594 7.316406 24.8125 C 7.265625 24.6875 7.242188 24.558594 7.242188 24.425781 C 7.242188 24.289062 7.265625 24.160156 7.316406 24.039062 C 7.371094 23.914062 7.441406 23.804688 7.539062 23.710938 L 23.710938 7.539062 C 23.804688 7.441406 23.914062 7.371094 24.039062 7.316406 C 24.160156 7.265625 24.289062 7.242188 24.425781 7.242188 C 24.558594 7.242188 24.6875 7.265625 24.8125 7.316406 C 24.933594 7.371094 25.042969 7.441406 25.140625 7.539062 M 10.679688 13.105469 C 10.355469 13.105469 10.046875 13.042969 9.75 12.917969 C 9.453125 12.796875 9.191406 12.621094 8.960938 12.394531 C 8.734375 12.164062 8.558594 11.902344 8.4375 11.605469 C 8.3125 11.308594 8.253906 11 8.253906 10.679688 C 8.253906 10.355469 8.3125 10.046875 8.4375 9.75 C 8.558594 9.453125 8.734375 9.191406 8.960938 8.960938 C 9.191406 8.734375 9.453125 8.558594 9.75 8.4375 C 10.046875 8.3125 10.355469 8.253906 10.679688 8.253906 C 11 8.253906 11.308594 8.3125 11.605469 8.4375 C 11.902344 8.558594 12.164062 8.734375 12.394531 8.960938 C 12.621094 9.191406 12.796875 9.453125 12.917969 9.75 C 13.042969 10.046875 13.105469 10.355469 13.105469 10.679688 C 13.105469 11 13.042969 11.308594 12.917969 11.605469 C 12.796875 11.902344 12.621094 12.164062 12.394531 12.394531 C 12.164062 12.621094 11.902344 12.796875 11.605469 12.917969 C 11.308594 13.042969 11 13.105469 10.679688 13.105469 M 10.679688 14.722656 C 10.945312 14.722656 11.207031 14.695312 11.46875 14.644531 C 11.726562 14.589844 11.980469 14.515625 12.226562 14.414062 C 12.46875 14.3125 12.703125 14.1875 12.925781 14.039062 C 13.144531 13.890625 13.347656 13.722656 13.535156 13.535156 C 13.722656 13.347656 13.890625 13.144531 14.039062 12.925781 C 14.1875 12.703125 14.3125 12.46875 14.414062 12.226562 C 14.515625 11.980469 14.589844 11.726562 14.644531 11.46875 C 14.695312 11.207031 14.722656 10.945312 14.722656 10.679688 C 14.722656 10.414062 14.695312 10.148438 14.644531 9.890625 C 14.589844 9.628906 14.515625 9.375 14.414062 9.132812 C 14.3125 8.886719 14.1875 8.652344 14.039062 8.433594 C 13.890625 8.210938 13.722656 8.007812 13.535156 7.820312 C 13.347656 7.632812 13.144531 7.464844 12.925781 7.316406 C 12.703125 7.167969 12.46875 7.042969 12.226562 6.941406 C 11.980469 6.839844 11.726562 6.765625 11.46875 6.710938 C 11.207031 6.660156 10.945312 6.636719 10.679688 6.636719 C 10.414062 6.636719 10.148438 6.660156 9.890625 6.710938 C 9.628906 6.765625 9.375 6.839844 9.132812 6.941406 C 8.886719 7.042969 8.652344 7.167969 8.433594 7.316406 C 8.210938 7.464844 8.007812 7.632812 7.820312 7.820312 C 7.632812 8.007812 7.464844 8.210938 7.316406 8.433594 C 7.167969 8.652344 7.042969 8.886719 6.941406 9.132812 C 6.839844 9.375 6.765625 9.628906 6.710938 9.890625 C 6.660156 10.148438 6.636719 10.414062 6.636719 10.679688 C 6.636719 10.945312 6.660156 11.207031 6.710938 11.46875 C 6.765625 11.726562 6.839844 11.980469 6.941406 12.226562 C 7.042969 12.46875 7.167969 12.703125 7.316406 12.925781 C 7.464844 13.144531 7.632812 13.347656 7.820312 13.535156 C 8.007812 13.722656 8.210938 13.890625 8.433594 14.039062 C 8.652344 14.1875 8.886719 14.3125 9.132812 14.414062 C 9.375 14.515625 9.628906 14.589844 9.890625 14.644531 C 10.148438 14.695312 10.414062 14.722656 10.679688 14.722656 M 22 24.425781 C 21.675781 24.425781 21.367188 24.363281 21.070312 24.238281 C 20.773438 24.117188 20.511719 23.941406 20.28125 23.714844 C 20.054688 23.484375 19.878906 23.222656 19.757812 22.925781 C 19.632812 22.628906 19.574219 22.320312 19.574219 22 C 19.574219 21.675781 19.632812 21.367188 19.757812 21.070312 C 19.878906 20.773438 20.054688 20.511719 20.28125 20.28125 C 20.511719 20.054688 20.773438 19.878906 21.070312 19.757812 C 21.367188 19.632812 21.675781 19.574219 22 19.574219 C 22.320312 19.574219 22.628906 19.632812 22.925781 19.757812 C 23.222656 19.878906 23.484375 20.054688 23.714844 20.28125 C 23.941406 20.511719 24.117188 20.773438 24.238281 21.070312 C 24.363281 21.367188 24.425781 21.675781 24.425781 22 C 24.425781 22.320312 24.363281 22.628906 24.238281 22.925781 C 24.117188 23.222656 23.941406 23.484375 23.714844 23.714844 C 23.484375 23.941406 23.222656 24.117188 22.925781 24.238281 C 22.628906 24.363281 22.320312 24.425781 22 24.425781 M 22 26.042969 C 22.265625 26.042969 22.527344 26.015625 22.789062 25.964844 C 23.046875 25.914062 23.300781 25.835938 23.546875 25.734375 C 23.792969 25.632812 24.023438 25.507812 24.246094 25.359375 C 24.464844 25.214844 24.671875 25.046875 24.859375 24.859375 C 25.046875 24.671875 25.214844 24.464844 25.363281 24.246094 C 25.507812 24.023438 25.632812 23.792969 25.734375 23.546875 C 25.835938 23.300781 25.914062 23.046875 25.964844 22.789062 C 26.015625 22.527344 26.042969 22.265625 26.042969 22 C 26.042969 21.734375 26.015625 21.46875 25.964844 21.210938 C 25.914062 20.949219 25.835938 20.695312 25.734375 20.449219 C 25.632812 20.207031 25.507812 19.972656 25.363281 19.75 C 25.214844 19.53125 25.046875 19.328125 24.859375 19.140625 C 24.671875 18.949219 24.464844 18.785156 24.246094 18.636719 C 24.023438 18.488281 23.792969 18.363281 23.546875 18.261719 C 23.300781 18.160156 23.046875 18.085938 22.789062 18.03125 C 22.527344 17.980469 22.265625 17.957031 22 17.957031 C 21.734375 17.957031 21.46875 17.980469 21.210938 18.035156 C 20.949219 18.085938 20.695312 18.160156 20.453125 18.265625 C 20.207031 18.367188 19.972656 18.488281 19.753906 18.636719 C 19.53125 18.785156 19.328125 18.953125 19.140625 19.140625 C 18.953125 19.328125 18.785156 19.53125 18.636719 19.753906 C 18.492188 19.972656 18.367188 20.207031 18.265625 20.453125 C 18.164062 20.695312 18.085938 20.949219 18.035156 21.210938 C 17.984375 21.46875 17.957031 21.734375 17.957031 22 C 17.957031 22.265625 17.984375 22.527344 18.035156 22.785156 C 18.085938 23.046875 18.164062 23.300781 18.265625 23.546875 C 18.367188 23.789062 18.492188 24.023438 18.636719 24.242188 C 18.785156 24.464844 18.953125 24.667969 19.140625 24.855469 C 19.328125 25.042969 19.53125 25.210938 19.753906 25.359375 C 19.972656 25.507812 20.207031 25.632812 20.453125 25.734375 C 20.695312 25.835938 20.949219 25.910156 21.210938 25.964844 C 21.46875 26.015625 21.734375 26.042969 22 26.042969 " fill-opacity="1" fill-rule="nonzero"/></svg>