<svg xmlns="http://www.w3.org/2000/svg" xmlns:xlink="http://www.w3.org/1999/xlink" width="46" zoomAndPan="magnify" viewBox="0 0 34.5 34.5" height="46" preserveAspectRatio="xMidYMid meet" version="1.0"><defs><clipPath id="b49c4a374c"><path d="M 5.027344 6 L 27.207031 6 L 27.207031 27.207031 L 5.027344 27.207031 Z M 5.027344 6 " clip-rule="nonzero"/></clipPath></defs><g clip-path="url(#b49c4a374c)"><path fill="#000000" d="M 9.144531 6.898438 C 9.421875 6.574219 9.773438 6.414062 10.199219 6.414062 L 22.035156 6.414062 C 22.460938 6.414062 22.8125 6.574219 23.089844 6.898438 L 26.707031 11.117188 C 27.039062 11.507812 27.207031 11.957031 27.207031 12.472656 L 27.207031 12.824219 C 27.207031 13.167969 27.152344 13.503906 27.046875 13.828125 C 26.945312 14.15625 26.792969 14.457031 26.59375 14.738281 C 26.394531 15.015625 26.15625 15.257812 25.882812 15.464844 C 25.605469 15.667969 25.304688 15.828125 24.980469 15.9375 C 24.65625 16.050781 24.324219 16.109375 23.980469 16.117188 C 23.636719 16.125 23.300781 16.078125 22.972656 15.980469 C 22.644531 15.882812 22.339844 15.734375 22.054688 15.542969 C 21.773438 15.347656 21.523438 15.117188 21.316406 14.84375 C 21.003906 15.246094 20.617188 15.558594 20.164062 15.78125 C 19.707031 16.003906 19.222656 16.117188 18.714844 16.117188 C 18.207031 16.117188 17.726562 16.003906 17.269531 15.78125 C 16.8125 15.558594 16.429688 15.246094 16.117188 14.84375 C 15.804688 15.246094 15.421875 15.558594 14.964844 15.78125 C 14.507812 16.003906 14.027344 16.117188 13.515625 16.117188 C 13.007812 16.117188 12.527344 16.003906 12.070312 15.78125 C 11.613281 15.558594 11.230469 15.246094 10.917969 14.84375 C 10.707031 15.117188 10.460938 15.347656 10.175781 15.542969 C 9.894531 15.734375 9.589844 15.882812 9.261719 15.980469 C 8.929688 16.078125 8.59375 16.125 8.253906 16.117188 C 7.910156 16.109375 7.574219 16.050781 7.25 15.9375 C 6.925781 15.828125 6.625 15.667969 6.351562 15.464844 C 6.078125 15.257812 5.839844 15.015625 5.640625 14.738281 C 5.441406 14.457031 5.289062 14.15625 5.183594 13.828125 C 5.078125 13.503906 5.027344 13.167969 5.027344 12.824219 L 5.027344 12.472656 C 5.027344 11.957031 5.195312 11.507812 5.527344 11.117188 Z M 11.613281 12.824219 C 11.613281 13.078125 11.660156 13.320312 11.757812 13.554688 C 11.851562 13.789062 11.992188 13.992188 12.167969 14.171875 C 12.347656 14.351562 12.554688 14.488281 12.789062 14.585938 C 13.023438 14.683594 13.265625 14.730469 13.515625 14.730469 C 13.769531 14.730469 14.011719 14.683594 14.246094 14.585938 C 14.480469 14.488281 14.6875 14.351562 14.863281 14.171875 C 15.042969 13.992188 15.179688 13.789062 15.277344 13.554688 C 15.375 13.320312 15.421875 13.078125 15.421875 12.824219 C 15.421875 12.632812 15.492188 12.46875 15.625 12.335938 C 15.761719 12.199219 15.925781 12.132812 16.117188 12.132812 C 16.308594 12.132812 16.472656 12.199219 16.605469 12.335938 C 16.742188 12.46875 16.808594 12.632812 16.808594 12.824219 C 16.808594 13.078125 16.859375 13.320312 16.953125 13.554688 C 17.050781 13.785156 17.191406 13.992188 17.367188 14.171875 C 17.546875 14.351562 17.753906 14.488281 17.988281 14.585938 C 18.21875 14.679688 18.460938 14.730469 18.714844 14.730469 C 18.96875 14.730469 19.210938 14.679688 19.445312 14.585938 C 19.679688 14.488281 19.882812 14.351562 20.0625 14.171875 C 20.242188 13.992188 20.378906 13.785156 20.476562 13.554688 C 20.574219 13.320312 20.621094 13.078125 20.621094 12.824219 C 20.621094 12.632812 20.6875 12.46875 20.824219 12.335938 C 20.960938 12.199219 21.125 12.132812 21.316406 12.132812 C 21.507812 12.132812 21.667969 12.199219 21.804688 12.335938 C 21.941406 12.46875 22.007812 12.632812 22.007812 12.824219 C 22.007812 13.078125 22.054688 13.320312 22.152344 13.554688 C 22.25 13.789062 22.386719 13.992188 22.566406 14.171875 C 22.746094 14.351562 22.949219 14.488281 23.183594 14.585938 C 23.417969 14.683594 23.660156 14.730469 23.914062 14.730469 C 24.167969 14.730469 24.410156 14.683594 24.644531 14.585938 C 24.875 14.488281 25.082031 14.351562 25.261719 14.171875 C 25.441406 13.992188 25.578125 13.789062 25.675781 13.554688 C 25.769531 13.320312 25.820312 13.078125 25.820312 12.824219 L 25.820312 12.472656 C 25.820312 12.300781 25.765625 12.148438 25.652344 12.019531 L 22.035156 7.800781 L 10.199219 7.800781 L 6.578125 12.019531 C 6.46875 12.148438 6.414062 12.300781 6.414062 12.472656 L 6.414062 12.824219 C 6.414062 13.078125 6.460938 13.320312 6.558594 13.554688 C 6.65625 13.789062 6.792969 13.992188 6.972656 14.171875 C 7.148438 14.351562 7.355469 14.488281 7.589844 14.585938 C 7.824219 14.683594 8.066406 14.730469 8.320312 14.730469 C 8.570312 14.730469 8.816406 14.683594 9.046875 14.585938 C 9.28125 14.488281 9.488281 14.351562 9.667969 14.171875 C 9.847656 13.992188 9.984375 13.789062 10.082031 13.554688 C 10.175781 13.320312 10.226562 13.078125 10.226562 12.824219 C 10.226562 12.632812 10.292969 12.46875 10.429688 12.335938 C 10.5625 12.199219 10.726562 12.132812 10.917969 12.132812 C 11.109375 12.132812 11.273438 12.199219 11.410156 12.335938 C 11.542969 12.46875 11.613281 12.632812 11.613281 12.824219 M 7.105469 16.808594 C 7.296875 16.808594 7.460938 16.878906 7.597656 17.011719 C 7.730469 17.148438 7.800781 17.3125 7.800781 17.503906 L 7.800781 25.820312 L 9.1875 25.820312 L 9.1875 18.890625 C 9.1875 18.703125 9.222656 18.527344 9.292969 18.359375 C 9.363281 18.1875 9.460938 18.039062 9.589844 17.910156 C 9.722656 17.777344 9.871094 17.679688 10.042969 17.609375 C 10.210938 17.539062 10.386719 17.503906 10.570312 17.503906 L 14.730469 17.503906 C 14.914062 17.503906 15.089844 17.539062 15.261719 17.609375 C 15.429688 17.679688 15.582031 17.777344 15.710938 17.910156 C 15.839844 18.039062 15.941406 18.1875 16.011719 18.359375 C 16.082031 18.527344 16.117188 18.703125 16.117188 18.890625 L 16.117188 25.820312 L 24.433594 25.820312 L 24.433594 17.503906 C 24.433594 17.3125 24.5 17.148438 24.636719 17.011719 C 24.773438 16.878906 24.933594 16.808594 25.125 16.808594 C 25.316406 16.808594 25.480469 16.878906 25.617188 17.011719 C 25.75 17.148438 25.820312 17.3125 25.820312 17.503906 L 25.820312 25.820312 L 26.511719 25.820312 C 26.703125 25.820312 26.867188 25.886719 27.003906 26.023438 C 27.136719 26.15625 27.207031 26.320312 27.207031 26.511719 C 27.207031 26.703125 27.136719 26.867188 27.003906 27.003906 C 26.867188 27.136719 26.703125 27.207031 26.511719 27.207031 L 5.71875 27.207031 C 5.527344 27.207031 5.367188 27.136719 5.230469 27.003906 C 5.09375 26.867188 5.027344 26.703125 5.027344 26.511719 C 5.027344 26.320312 5.09375 26.15625 5.230469 26.023438 C 5.367188 25.886719 5.527344 25.820312 5.71875 25.820312 L 6.414062 25.820312 L 6.414062 17.503906 C 6.414062 17.3125 6.480469 17.148438 6.617188 17.011719 C 6.75 16.878906 6.914062 16.808594 7.105469 16.808594 M 10.570312 25.820312 L 14.730469 25.820312 L 14.730469 18.890625 L 10.570312 18.890625 Z M 17.503906 18.890625 C 17.503906 18.703125 17.539062 18.527344 17.609375 18.359375 C 17.679688 18.1875 17.777344 18.039062 17.910156 17.910156 C 18.039062 17.777344 18.1875 17.679688 18.359375 17.609375 C 18.527344 17.539062 18.703125 17.503906 18.890625 17.503906 L 21.660156 17.503906 C 21.84375 17.503906 22.023438 17.539062 22.191406 17.609375 C 22.363281 17.679688 22.511719 17.777344 22.640625 17.910156 C 22.769531 18.039062 22.871094 18.1875 22.941406 18.359375 C 23.011719 18.527344 23.046875 18.703125 23.046875 18.890625 L 23.046875 23.046875 C 23.046875 23.230469 23.011719 23.40625 22.941406 23.578125 C 22.871094 23.746094 22.769531 23.898438 22.640625 24.027344 C 22.511719 24.15625 22.363281 24.257812 22.191406 24.328125 C 22.023438 24.398438 21.84375 24.433594 21.660156 24.433594 L 18.890625 24.433594 C 18.703125 24.433594 18.527344 24.398438 18.359375 24.328125 C 18.1875 24.257812 18.039062 24.15625 17.910156 24.027344 C 17.777344 23.898438 17.679688 23.746094 17.609375 23.578125 C 17.539062 23.40625 17.503906 23.230469 17.503906 23.046875 Z M 21.660156 18.890625 L 18.890625 18.890625 L 18.890625 23.046875 L 21.660156 23.046875 Z M 21.660156 18.890625 " fill-opacity="1" fill-rule="nonzero"/></g></svg>