<svg xmlns="http://www.w3.org/2000/svg" xmlns:xlink="http://www.w3.org/1999/xlink" width="46" zoomAndPan="magnify" viewBox="0 0 34.5 34.5" height="46" preserveAspectRatio="xMidYMid meet" version="1.0"><defs><clipPath id="ba25c8ebfa"><path d="M 5.101562 5.101562 L 28.757812 5.101562 L 28.757812 28 L 5.101562 28 Z M 5.101562 5.101562 " clip-rule="nonzero"/></clipPath></defs><g clip-path="url(#ba25c8ebfa)"><path fill="#000000" d="M 23.046875 5.582031 C 23.207031 5.542969 23.375 5.519531 23.542969 5.515625 C 23.710938 5.515625 23.878906 5.53125 24.042969 5.566406 C 24.207031 5.601562 24.367188 5.652344 24.519531 5.722656 C 24.671875 5.796875 24.816406 5.882812 24.949219 5.984375 C 25.082031 6.089844 25.199219 6.207031 25.304688 6.335938 C 25.410156 6.46875 25.5 6.609375 25.574219 6.761719 C 25.648438 6.914062 25.707031 7.070312 25.742188 7.234375 C 25.78125 7.398438 25.800781 7.566406 25.800781 7.734375 L 25.800781 9.535156 L 26.539062 9.535156 C 26.835938 9.535156 27.117188 9.59375 27.390625 9.707031 C 27.660156 9.816406 27.902344 9.976562 28.109375 10.1875 C 28.316406 10.394531 28.476562 10.632812 28.589844 10.90625 C 28.703125 11.175781 28.757812 11.460938 28.757812 11.753906 L 28.757812 25.0625 C 28.757812 25.355469 28.703125 25.640625 28.589844 25.910156 C 28.476562 26.183594 28.316406 26.421875 28.109375 26.628906 C 27.902344 26.839844 27.660156 27 27.390625 27.109375 C 27.117188 27.222656 26.835938 27.28125 26.539062 27.28125 L 7.320312 27.28125 C 7.023438 27.28125 6.742188 27.222656 6.46875 27.109375 C 6.199219 27 5.957031 26.839844 5.75 26.628906 C 5.542969 26.421875 5.382812 26.183594 5.269531 25.910156 C 5.15625 25.640625 5.101562 25.355469 5.101562 25.0625 L 5.101562 11.753906 C 5.101562 11.46875 5.152344 11.195312 5.261719 10.929688 C 5.367188 10.664062 5.519531 10.429688 5.714844 10.222656 C 5.914062 10.015625 6.140625 9.851562 6.402344 9.734375 C 6.660156 9.617188 6.933594 9.550781 7.21875 9.539062 Z M 13.324219 9.535156 L 24.324219 9.535156 L 24.324219 7.734375 C 24.320312 7.621094 24.296875 7.511719 24.246094 7.410156 C 24.195312 7.308594 24.128906 7.222656 24.039062 7.152344 C 23.949219 7.082031 23.847656 7.035156 23.738281 7.011719 C 23.625 6.988281 23.515625 6.988281 23.40625 7.015625 Z M 7.320312 11.015625 C 7.113281 11.015625 6.941406 11.085938 6.796875 11.230469 C 6.652344 11.375 6.578125 11.550781 6.578125 11.753906 L 6.578125 25.0625 C 6.578125 25.265625 6.652344 25.441406 6.796875 25.585938 C 6.941406 25.730469 7.113281 25.800781 7.320312 25.800781 L 26.539062 25.800781 C 26.746094 25.800781 26.917969 25.730469 27.0625 25.585938 C 27.207031 25.441406 27.28125 25.265625 27.28125 25.0625 L 27.28125 11.753906 C 27.28125 11.550781 27.207031 11.375 27.0625 11.230469 C 26.917969 11.085938 26.746094 11.015625 26.539062 11.015625 Z M 7.320312 11.015625 " fill-opacity="1" fill-rule="nonzero"/></g></svg>